<svg id="Layer_1" data-name="Layer 1" xmlns="http://www.w3.org/2000/svg" viewBox="0 0 250.83 123.65"><defs><style>.cls-1{fill:#fff;}</style></defs><title>Lonely Planet Traveller</title><path class="cls-1" d="M152.28,416.35a54.32,54.32,0,0,1,51.41,36.51l3.13-1.08,3.11-1.1A60.87,60.87,0,0,0,94.6,450.6l6.2,2.36A54.81,54.81,0,0,1,152.28,416.35Z" transform="translate(-27.7 -409.28)"/><path class="cls-1" d="M109.88,477.33l-7.48-1.13c-3.79,2.87-8.11,1.38-9.48-2.43H111.1V485.6h9v-6.08a7.74,7.74,0,0,0,13.16,3.57,14.12,14.12,0,0,1-.55,4.15c-1.35,3.26-5.88,3.26-8.23,1.08l-5.33,6.88a14.87,14.87,0,0,0,11.23,3.57c3.62-.36,5.92-1,8.68-3.49a11.93,11.93,0,0,0,3.23-7.93V458h-8.88v16.8a2.23,2.23,0,1,1-4.45,0V458h-8.87V447.18h-9v19.46c-2.91-6.22-8.4-9.43-15.28-8.46a13.72,13.72,0,0,0-10.37,8.46c-1.71-5.48-5.75-8.38-11.39-8.68-6,0-10.42,2.93-12.22,8.68-3-6.64-9-9.84-16.23-8.21a13.54,13.54,0,0,0-8.88,7.63V447.18h-9V485.6h9V477a13.7,13.7,0,0,0,12.6,8.1c6.11-.36,10-3.26,12.5-8.68v9.2h8.7V469c0.33-3.62,5.84-3.73,6.17,0V485.6h8.73v-8.68a14,14,0,0,0,9.9,8.35C105.72,486.25,109.82,479.12,109.88,477.33ZM49,477.17a5.73,5.73,0,1,1,5.72-5.73A5.73,5.73,0,0,1,49,477.17Zm54.85-6.88H92.72A5.75,5.75,0,0,1,103.84,470.29Z" transform="translate(-27.7 -409.28)"/><path class="cls-1" d="M152.24,526a54.25,54.25,0,0,1-51.4-35.85l-3.13,1.05-3.11,1.07a61.24,61.24,0,0,0,115.33.1l-6.2-2.32A54.77,54.77,0,0,1,152.24,526Z" transform="translate(-27.7 -409.28)"/><path class="cls-1" d="M277.71,482.41l-0.33-7.6-0.41.36a3.11,3.11,0,0,1-4.82-.89c-0.86-2.57-.41-5.34-0.41-8.07h5.53v-8.09h-5.53V452.6H263v14a13.71,13.71,0,0,0-7.69-7.69c-7.49-2.66-14.65.47-17.94,7.69a12.18,12.18,0,0,0-6.91-7.83c-7.24-2.54-14.21.47-16.73,7.83-2-4.62-4.87-7.05-9.81-8.41a13.68,13.68,0,0,0-15.26,7.82V447.18h-9v18.88a15.45,15.45,0,0,0-4.31-5.47c-9.27-6.72-21.46,0-21.68,11.28v23.94h9c0-2.41-.28-11.78-0.28-11.78l1,0.42c6.75,1.71,13.63-1.69,16.26-7v8.12h9v-8.12c2.6,5.52,7.57,8.7,13.73,8.26,2.85,0.18,5.23-7.35,5.24-5.26v5.26h6l8.79-.14V469c0-3.45,5.67-3.75,6-.22,0.07,5.43.06,11.49,0.06,16.82h8.88v-8.68a14.16,14.16,0,0,0,7.44,7.63c7.16,2.33,14.63,1.19,17.43-7.54l-7.55-1.22c-1.74,2.6-7.94,3.16-9.9-2H263c0,4.29.08,7.54,4,10.36S277.79,484.24,277.71,482.41Zm-110.1-5.09a5.72,5.72,0,1,1,5.72-5.72A5.74,5.74,0,0,1,167.61,477.32Zm33.39,0a5.72,5.72,0,1,1,5.72-5.72A5.73,5.73,0,0,1,201,477.32Zm43.72-7.49a5.7,5.7,0,0,1,11,0h-11Z" transform="translate(-27.7 -409.28)"/><polygon class="cls-1" points="184.8 84.09 187.45 84.09 187.45 91.58 189.34 91.58 189.34 84.09 191.73 84.09 192.22 82.49 184.8 82.49 184.8 84.09"/><path class="cls-1" d="M225,496.76v0a2.38,2.38,0,0,0,1.77-2.33,2.33,2.33,0,0,0-1.45-2.29,4.52,4.52,0,0,0-1.9-.35h-2.72v9.09h1.89v-3.43h0.69a2.45,2.45,0,0,1,1,1.25l1.2,2.18h2.17l-1.48-2.61A4.28,4.28,0,0,0,225,496.76Zm-0.8-1.06a1.81,1.81,0,0,1-.91.19h-0.7V493.3h0.72a1.63,1.63,0,0,1,.88.19,1.19,1.19,0,0,1,.62,1.1A1.25,1.25,0,0,1,224.22,495.7Z" transform="translate(-27.7 -409.28)"/><path class="cls-1" d="M231.35,491.73l-3.55,9.13h1.94l0.84-2.22h3.09l0.88,2.22h2l-3.71-9.13h-1.53Zm-0.22,5.39,0.55-1.52a10.9,10.9,0,0,0,.46-1.37h0c0.08,0.3.19,0.69,0.41,1.35l0.54,1.53h-2Z" transform="translate(-27.7 -409.28)"/><path class="cls-1" d="M241.08,496.5c-0.26.68-.47,1.28-0.65,1.81h0c-0.18-.54-0.39-1.13-0.65-1.79l-1.82-4.75h-2l3.71,9.16h1.6l3.71-9.16h-2Z" transform="translate(-27.7 -409.28)"/><polygon class="cls-1" points="222.85 84.09 223.34 82.49 218.09 82.49 218.09 91.58 223.33 91.58 223.33 89.98 219.98 89.98 219.98 87.77 222.86 87.77 222.86 86.19 219.98 86.19 219.98 84.09 222.85 84.09"/><polygon class="cls-1" points="226.79 82.49 224.91 82.49 224.91 91.58 229.97 91.58 229.97 89.98 226.79 89.98 226.79 82.49"/><polygon class="cls-1" points="232.88 82.49 230.99 82.49 230.99 91.58 236.05 91.58 236.05 89.98 232.88 89.98 232.88 82.49"/><polygon class="cls-1" points="241.84 84.09 242.33 82.49 237.08 82.49 237.08 91.58 242.32 91.58 242.32 89.98 238.97 89.98 238.97 87.77 241.85 87.77 241.85 86.19 238.97 86.19 238.97 84.09 241.84 84.09"/><path class="cls-1" d="M277.06,498.25a4.28,4.28,0,0,0-1.16-1.49v0a2.38,2.38,0,0,0,1.77-2.33,2.33,2.33,0,0,0-1.45-2.29,4.52,4.52,0,0,0-1.9-.35h-2.72v9.09h1.89v-3.43h0.69a2.45,2.45,0,0,1,1,1.25l1.2,2.18h2.16Zm-2-2.55a1.81,1.81,0,0,1-.91.19h-0.7V493.3h0.72a1.63,1.63,0,0,1,.88.19,1.19,1.19,0,0,1,.62,1.1A1.25,1.25,0,0,1,275.1,495.7Z" transform="translate(-27.7 -409.28)"/></svg>